<svg width="1440" height="660" viewBox="0 0 1440 660" fill="none" xmlns="http://www.w3.org/2000/svg">
<path d="M291.738 288L254.276 284L267.945 296L246.683 288L225.421 290L192.515 281.5L156.066 284L153.535 292L140.879 284L125.692 281L106.455 287.5L95.8235 280L88.7362 281L95.8235 287.5L84.18 282.5L71.5241 283.27L54.3119 287.5L38.1123 286L39.1248 281L29 237.5L35.0749 198L30.0125 191.5L36.0873 177.5L33.5561 164L36.5936 144.5L32.0374 144L36.5936 132L35.0749 125L34.5686 110.75L36.5936 117.5L32.5437 104L36.5936 90.5L38.1123 78L33.5561 66.5L36.5936 57V56.5V49.5L31.5312 56L34.5686 45L31.5312 34L37.0998 18.5L57.8556 21.5L68.9929 18L74.5615 13L102.405 18L111.011 23L130.754 17L134.804 21.5L160.116 23L140.373 18L171.253 13L194.034 20L201.121 23.5L222.383 22L235.039 18L254.276 17L264.401 9L274.526 17L294.269 18L291.232 23.5L313 18L301.863 29L307.431 44.5L303.381 49.5L305.406 87L302.369 112L307.431 124.5L299.838 130.5L305.406 153.5V163.5L313 169.5L305.406 180V190.5L299.838 215.5L313 245L303.381 276L291.738 288Z" fill="#969493" fill-opacity="0.5"/>
<path d="M561.738 284L524.276 280L537.945 292L516.683 284L495.421 286L462.515 277.5L426.066 280L423.535 288L410.879 280L395.692 277L376.455 283.5L365.824 276L358.736 277L365.824 283.5L354.18 278.5L341.524 279.27L324.312 283.5L308.112 282L309.125 277L299 233.5L305.075 194L300.012 187.5L306.087 173.5L303.556 160L306.594 140.5L302.037 140L306.594 128L305.075 121L304.569 106.75L306.594 113.5L302.544 100L306.594 86.5L308.112 74L303.556 62.5L306.594 53V52.5V45.5L301.531 52L304.569 41L302.5 30L302 29L313 18L327.856 17.5L338.993 14L344.561 9L372.405 14L381.011 19L400.754 13L404.804 17.5L430.116 19L410.373 14L441.253 9L464.034 16L471.121 19.5L492.383 18L505.039 14L524.276 13L534.401 5L544.526 13L564.269 14L561.232 19.5L584 14.5L577.431 34V40.5L573.381 45.5L575.406 83L572.369 108L577.431 120.5L569.838 126.5L575.406 149.5V159.5L583 165.5L575.406 176V186.5L569.838 211.5L583 241L573.381 272L561.738 284Z" fill="#969493" fill-opacity="0.5"/>
<path d="M838.738 284L801.276 280L814.945 292L793.683 284L772.421 286L739.515 277.5L703.066 280L700.535 288L687.879 280L672.692 277L653.455 283.5L642.824 276L635.736 277L642.824 283.5L631.18 278.5L618.524 279.27L601.312 283.5L585.112 282L586.125 277L576 233.5L582.075 194L577.012 187.5L583.087 173.5L580.556 160L583.594 140.5L579.037 140L583.594 128L582.075 121L581.569 106.75L583.594 113.5L579.544 100L583.594 86.5L585.112 74L580.556 62.5L583.594 53V52.5V45.5L578.531 52L581.569 41L578.531 30L584.1 14.5L604.856 17.5L615.993 14L621.561 9L649.405 14L658.011 19L677.754 13L681.804 17.5L707.116 19L687.373 14L718.253 9L741.034 16L748.121 19.5L769.383 18L782.039 14L801.276 13L811.401 5L821.526 13L841.269 14L838.232 19.5L858.5 14L852.406 30.5L854.431 40.5L850.381 45.5L852.406 83L849.369 108L854.431 120.5L846.838 126.5L852.406 149.5V159.5L860 165.5L852.406 176V186.5L846.838 211.5L860 241L850.381 272L838.738 284Z" fill="#969493" fill-opacity="0.5"/>
<path d="M1112.74 284L1075.28 280L1088.94 292L1067.68 284L1046.42 286L1013.52 277.5L977.066 280L974.535 288L961.879 280L946.692 277L927.455 283.5L916.824 276L909.736 277L916.824 283.5L905.18 278.5L892.524 279.27L875.312 283.5L859.112 282L860.125 277L850 233.5L856.075 194L851.012 187.5L857.087 173.5L854.556 160L857.594 140.5L853.037 140L857.594 128L856.075 121L855.569 106.75L857.594 113.5L853.544 100L857.594 86.5L859.112 74L854.556 62.5L857.594 53V52.5V45.5L852.531 52L855.569 41L852.531 30L858.1 14.5L878.856 17.5L889.993 14L895.561 9L923.405 14L932.011 19L951.754 13L955.804 17.5L981.116 19L961.373 14L992.253 9L1015.03 16L1022.12 19.5L1043.38 18L1056.04 14L1075.28 13L1085.4 5L1095.53 13L1115.27 14L1112.23 19.5L1158 14.5L1152.5 30L1128.43 40.5L1124.38 45.5L1126.41 83L1123.37 108L1128.43 120.5L1120.84 126.5L1126.41 149.5V159.5L1134 165.5L1126.41 176V186.5L1120.84 211.5L1134 241L1124.38 272L1112.74 284Z" fill="#969493" fill-opacity="0.5"/>
<path d="M1412.74 284L1375.28 280L1388.94 292L1367.68 284L1346.42 286L1313.52 277.5L1277.07 280L1274.53 288L1261.88 280L1246.69 277L1227.45 283.5L1216.82 276L1209.74 277L1216.82 283.5L1205.18 278.5L1192.52 279.27L1175.31 283.5L1159.11 282L1160.12 277L1150 233.5L1156.07 194L1151.01 187.5L1157.09 173.5L1154.56 160L1157.59 140.5L1153.04 140L1157.59 128L1156.07 121L1155.57 106.75L1157.59 113.5L1153.54 100L1157.59 86.5L1159.11 74L1154.56 62.5L1157.59 53V52.5V45.5L1152.53 52L1155.57 41L1152.53 30L1158.1 14.5L1178.86 17.5L1189.99 14L1195.56 9L1223.4 14L1232.01 19L1251.75 13L1255.8 17.5L1281.12 19L1261.37 14L1292.25 9L1315.03 16L1322.12 19.5L1343.38 18L1356.04 14L1375.28 13L1385.4 5L1395.53 13L1415.27 14L1412.23 19.5L1434 14L1422.86 25L1428.43 40.5L1424.38 45.5L1426.41 83L1423.37 108L1428.43 120.5L1420.84 126.5L1426.41 149.5V159.5L1434 165.5L1426.41 176V186.5L1420.84 211.5L1434 241L1424.38 272L1412.74 284Z" fill="#969493" fill-opacity="0.5"/>
<path d="M1381.5 519L1375.28 529L1388.95 541L1367.68 533L1346.42 535L1313.52 526.5L1277.07 529L1274.54 537L1261.88 529L1246.69 526L1227.45 532.5L1216.82 525L1209.74 526L1216.82 532.5L1205.18 527.5L1192.52 528.27L1175.31 532.5L1159.11 531L1160.13 526L1150 482.5L1156.08 443L1151.01 436.5L1157.09 422.5L1154.56 409L1157.59 389.5L1153.04 389L1157.59 377L1156.08 370L1155.57 355.75L1157.59 362.5L1153.54 349L1157.59 335.5L1159.11 323L1154.56 311.5L1157.59 302V301.5V294.5L1152.53 301L1155.57 290L1152.53 279L1158.1 263.5L1178.86 266.5L1189.99 263L1195.56 258L1223.4 263L1232.01 268L1251.75 262L1255.8 266.5L1281.12 268L1261.37 263L1292.25 258L1315.03 265L1322.12 268.5L1343.38 267L1356.04 263L1375.28 262L1385.4 254L1395.53 262L1409 263L1410 269V287L1424.5 272L1428.43 289.5L1424.38 294.5L1426.41 332L1423.37 357L1428.43 369.5L1420.84 375.5L1412.23 382L1395.53 456L1381.5 519Z" fill="#969493" fill-opacity="0.5"/>
<path d="M1412.74 652L1375.28 648L1388.94 660L1367.68 652L1346.42 654L1313.52 645.5L1277.07 648L1274.53 656L1261.88 648L1246.69 645L1227.45 651.5L1216.82 644L1209.74 645L1216.82 651.5L1205.18 646.5L1192.52 647.27L1175.31 651.5L1159.11 650L1160.12 645L1150 601.5L1156.07 562L1151.01 555.5L1157.09 541.5L1154.56 528L1157.59 508.5L1153.04 508L1157.59 496L1156.07 489L1155.57 474.75L1157.59 481.5L1153.54 468L1157.59 454.5L1159.11 442L1154.56 430.5L1157.59 421V420.5V413.5L1152.53 420L1155.57 409L1152.53 398L1158.1 382.5L1178.86 385.5L1189.99 382L1195.56 377L1223.4 382L1232.01 387L1251.75 381L1255.8 385.5L1281.12 387L1261.37 382L1292.25 377L1315.03 384L1322.12 387.5L1343.38 386L1356.04 382L1375.28 381L1385.4 373L1395.53 381L1415.27 382L1412.23 387.5L1434 382L1422.86 393L1428.43 408.5L1424.38 413.5L1426.41 451L1423.37 476L1428.43 488.5L1420.84 494.5L1426.41 517.5V527.5L1434 533.5L1426.41 544V554.5L1420.84 579.5L1434 609L1424.38 640L1412.74 652Z" fill="#969493" fill-opacity="0.5"/>
<path d="M1140.74 652L1103.28 648L1116.94 660L1095.68 652L1074.42 654L1041.52 645.5L1005.07 648L1002.53 656L989.879 648L974.692 645L955.455 651.5L944.824 644L937.736 645L944.824 651.5L933.18 646.5L920.524 647.27L903.312 651.5L887.112 650L888.125 645L878 601.5L884.075 562L879.012 555.5L885.087 541.5L882.556 528L885.594 508.5L881.037 508L885.594 496L884.075 489L883.569 474.75L885.594 481.5L881.544 468L885.594 454.5L887.112 442L882.556 430.5L885.594 421V420.5V413.5L880.531 420L883.569 409L880.531 398L886.1 382.5L906.856 385.5L917.993 382L923.561 377L951.405 382L960.011 387L979.754 381L983.804 385.5L1009.12 387L989.373 382L1020.25 377L1043.03 384L1050.12 387.5L1071.38 386L1084.04 382L1103.28 381L1113.4 373L1123.53 381L1143.27 382L1140.23 387.5L1162 382L1150.86 393L1156.43 408.5L1152.38 413.5L1154.41 451L1151.37 476L1156.43 488.5L1148.84 494.5L1154.41 517.5V527.5L1162 533.5L1154.41 544V554.5L1148.84 579.5L1162 609L1152.38 640L1140.74 652Z" fill="#969493" fill-opacity="0.5"/>
<path d="M866.738 652L829.276 648L842.945 660L821.683 652L800.421 654L767.515 645.5L731.066 648L728.535 656L715.879 648L700.692 645L681.455 651.5L670.824 644L663.736 645L670.824 651.5L659.18 646.5L646.524 647.27L629.312 651.5L613.112 650L614.125 645L604 601.5L610.075 562L605.012 555.5L611.087 541.5L608.556 528L611.594 508.5L607.037 508L611.594 496L610.075 489L609.569 474.75L611.594 481.5L607.544 468L611.594 454.5L613.112 442L608.556 430.5L611.594 421V420.5V413.5L606.531 420L609.569 409L606.531 398L612.1 382.5L632.856 385.5L643.993 382L649.561 377L677.405 382L686.011 387L705.754 381L709.804 385.5L735.116 387L715.373 382L746.253 377L769.034 384L776.121 387.5L797.383 386L810.039 382L829.276 381L839.401 373L849.526 381L869.269 382L866.232 387.5L888 382L876.863 393L882.431 408.5L878.381 413.5L880.406 451L877.369 476L882.431 488.5L874.838 494.5L880.406 517.5V527.5L888 533.5L880.406 544V554.5L874.838 579.5L888 609L878.381 640L866.738 652Z" fill="#969493" fill-opacity="0.5"/>
<path d="M597.738 652L560.276 648L573.945 660L552.683 652L531.421 654L498.515 645.5L462.066 648L459.535 656L446.879 648L431.692 645L412.455 651.5L401.824 644L394.736 645L401.824 651.5L390.18 646.5L377.524 647.27L360.312 651.5L344.112 650L345.125 645L335 601.5L341.075 562L336.012 555.5L342.087 541.5L339.556 528L342.594 508.5L338.037 508L342.594 496L341.075 489L340.569 474.75L342.594 481.5L338.544 468L342.594 454.5L344.112 442L339.556 430.5L342.594 421V420.5V413.5L337.531 420L340.569 409L337.531 398L343.1 382.5L363.856 385.5L374.993 382L380.561 377L408.405 382L417.011 387L436.754 381L440.804 385.5L466.116 387L446.373 382L477.253 377L500.034 384L507.121 387.5L528.383 386L541.039 382L560.276 381L570.401 373L580.526 381L600.269 382L597.232 387.5L619 382L607.863 393L613.431 408.5L609.381 413.5L611.406 451L608.369 476L613.431 488.5L605.838 494.5L611.406 517.5V527.5L619 533.5L611.406 544V554.5L605.838 579.5L619 609L609.381 640L597.738 652Z" fill="#969493" fill-opacity="0.5"/>
<path d="M328.738 652L291.276 648L304.945 660L283.683 652L262.421 654L229.515 645.5L193.066 648L190.535 656L177.879 648L162.692 645L143.455 651.5L132.824 644L125.736 645L132.824 651.5L121.18 646.5L108.524 647.27L91.3119 651.5L75.1123 650L76.1248 645L66 601.5L72.0749 562L67.0125 555.5L73.0873 541.5L70.5561 528L73.5936 508.5L69.0374 508L73.5936 496L72.0749 489L71.5686 474.75L73.5936 481.5L69.5437 468L73.5936 454.5L75.1123 442L70.5561 430.5L73.5936 421V420.5V413.5L68.5312 420L71.5686 409L68.5312 398L74.0998 382.5L94.8556 385.5L105.993 382L111.561 377L139.405 382L148.011 387L167.754 381L171.804 385.5L197.116 387L177.373 382L208.253 377L231.034 384L238.121 387.5L259.383 386L272.039 382L291.276 381L301.401 373L311.526 381L331.269 382L328.232 387.5L350 382L338.863 393L344.431 408.5L340.381 413.5L342.406 451L339.369 476L344.431 488.5L336.838 494.5L342.406 517.5V527.5L350 533.5L342.406 544V554.5L336.838 579.5L350 609L340.381 640L328.738 652Z" fill="#969493" fill-opacity="0.5"/>
<path d="M141.5 614L110 603.5L68.5 617L76.5 645L74 638.5L65.7362 650L72.8235 656.5L61.18 651.5L48.524 652.27L31.3119 656.5L15.1123 655L16.1248 650L6 606.5L12.0749 567L7.01248 560.5L13.0873 546.5L10.5562 533L13.5936 513.5L9.03741 513L13.5936 501L12.0749 494L11.5686 479.75L13.5936 486.5L9.54367 473L13.5936 459.5L15.1123 447L10.5562 435.5L13.5936 426V425.5V418.5L8.53119 425L11.5686 414L8.53119 403L15.1123 393.5L36.5 397L45.9929 387L51.5615 382L79.4046 387L88.0107 392L107.754 386L111.804 390.5L137.116 392L117.373 387L148.253 382L171.034 389L178.121 392.5L199.383 391L212.039 387L231.276 386L241.401 378L251.526 386L271.269 387L268.232 392.5L290 387L278.863 398L284.431 413.5L280.381 418.5L282.406 456L279.369 481L284.431 493.5L276.838 499.5L282.406 522.5V532.5L290 538.5L282.406 549V559.5L276.838 584.5L290 614H141.5Z" fill="#969493" fill-opacity="0.5"/>
<path d="M268.738 396L231.276 392L244.945 404L223.683 396L202.421 398L169.515 389.5L133.066 392L130.535 400L117.879 392L102.692 389L83.4545 395.5L72.8235 388L65.7362 389L72.8235 395.5L61.18 390.5L48.5241 391.27L31.3119 395.5L15.1123 394L16.1248 389L5.99999 345.5L12.0749 306L7.01247 299.5L13.0873 285.5L10.5561 272L13.5936 252.5L9.03742 252L13.5936 240L12.0749 233L11.5686 218.75L13.5936 225.5L9.54366 212L13.5936 198.5L15.1123 186L10.5561 174.5L13.5936 165V164.5V157.5L8.53118 164L11.5686 153L8.53118 142L14.0998 126.5L34.8556 129.5L45.9929 126L51.5615 121L79.4046 126L88.0107 131L107.754 125L111.804 129.5L137.116 131L117.373 126L148.253 121L171.034 128L178.121 131.5L199.383 130L212.039 126L231.276 125L241.401 117L251.526 125L271.269 126L268.232 131.5L290 126L278.863 137L284.431 152.5L280.381 157.5L282.406 195L279.369 220L284.431 232.5L276.838 238.5L282.406 261.5V271.5L290 277.5L282.406 288V298.5L276.838 323.5L290 353L280.381 384L268.738 396Z" fill="#969493" fill-opacity="0.5"/>
<path d="M268.738 284L231.276 280L244.945 292L223.683 284L202.421 286L169.515 277.5L133.066 280L130.535 288L117.879 280L102.692 277L83.4545 283.5L72.8235 276L65.7362 277L72.8235 283.5L61.18 278.5L48.524 279.27L31.3119 283.5L35 128L29.5 129L14.5 126.5L12.0749 121L11.5686 106.75L13.5936 113.5L9.54367 100L13.5936 86.5L15.1123 74L10.5562 62.5L13.5936 53V52.5V45.5L8.53119 52L11.5686 41L8.53119 30L14.0998 14.5L37 18.5L32 32.5L83.4545 149.5L280.732 52L280.381 45.5L282.406 83L279.369 108L284.431 120.5L276.838 126.5L282.406 149.5V159.5L290 165.5L282.406 176V186.5L276.838 211.5L290 241L280.381 272L268.738 284Z" fill="#969493" fill-opacity="0.5"/>
<g filter="url(#filter0_n_9_57)">
<rect x="1412" y="30" width="606" height="1383" transform="rotate(90 1412 30)" fill="#2F332E"/>
</g>
<defs>
<filter id="filter0_n_9_57" x="29" y="30" width="1383" height="606" filterUnits="userSpaceOnUse" color-interpolation-filters="sRGB">
<feFlood flood-opacity="0" result="BackgroundImageFix"/>
<feBlend mode="normal" in="SourceGraphic" in2="BackgroundImageFix" result="shape"/>
<feTurbulence type="fractalNoise" baseFrequency="2 2" stitchTiles="stitch" numOctaves="3" result="noise" seed="8198" />
<feColorMatrix in="noise" type="luminanceToAlpha" result="alphaNoise" />
<feComponentTransfer in="alphaNoise" result="coloredNoise1">
<feFuncA type="discrete" tableValues="1 1 1 1 1 1 1 1 1 1 1 1 1 1 1 1 1 1 1 1 1 1 1 1 1 1 1 1 1 1 1 1 1 1 1 1 1 1 1 1 1 1 1 1 1 1 1 1 1 1 1 0 0 0 0 0 0 0 0 0 0 0 0 0 0 0 0 0 0 0 0 0 0 0 0 0 0 0 0 0 0 0 0 0 0 0 0 0 0 0 0 0 0 0 0 0 0 0 0 0 "/>
</feComponentTransfer>
<feComposite operator="in" in2="shape" in="coloredNoise1" result="noise1Clipped" />
<feFlood flood-color="#000000" result="color1Flood" />
<feComposite operator="in" in2="noise1Clipped" in="color1Flood" result="color1" />
<feMerge result="effect1_noise_9_57">
<feMergeNode in="shape" />
<feMergeNode in="color1" />
</feMerge>
</filter>
</defs>
</svg>
