<svg width="165" height="183" viewBox="0 0 165 183" fill="none" xmlns="http://www.w3.org/2000/svg">
<path d="M17.147 88.1608L13.5747 106.475L19.2903 126.751L38.5806 154.875L50.7264 160.762L83.5914 169.265L112.17 150.951L139.319 137.216L145.035 111.707L148.302 86.8587L142.847 70.3876L136.369 52.4255L132.174 48.3353L124.096 41.175L125.03 41.0682L129.892 43.2209L153.756 49.571L157.18 50.955L164.325 77.8879V105.166L157.18 131.329L139.319 148.989L122.172 170.573L85.0203 183L55.0131 173.843L19.2903 157.491L2.14337 121.518L0 93.3933L13.5747 65.2686L25.7204 49.571L37.1517 42.3763L48.583 54.8035L34.2939 63.9605L30.0072 75.0795L17.147 88.1608Z" fill="#B1A88C"/>
<path d="M92.7116 33.2991L94.6559 29.5072L90.3745 28.5091L88.0201 26.1047L72.7523 27.8538L70.8564 26.8817L61.766 30.6011L72.8283 20.7095L80.457 19.8323L58.5569 18.1807L54.765 16.2364L47.157 14.7299L54.8133 11.4724L66.7234 11.5932L65.3136 9.67312L60.0634 10.5728L52.9416 8.11821L49.6357 5.22595L41.5659 2.28533L51.1181 0L60.6462 0.0966897L94.8976 5.68699L103.915 9.11368L108.631 13.9261L117.625 19.7348L141.294 29.2909L157.18 50.955L145.574 78.6232L133.085 45.6201L115.463 44.9649L107.321 49.1703L99.6884 50.0458L91.6186 47.1052L85.4205 47.5187L79.1982 50.3143L73.0243 48.3458L69.2324 46.4015L59.2182 47.2528L72.6349 39.7657L79.3191 38.4042L92.7116 33.2991Z" fill="#B1A88C"/>
</svg>
