<svg width="995" height="183" viewBox="0 0 995 183" fill="none" xmlns="http://www.w3.org/2000/svg">
<path d="M903.582 154.337L933.473 124.446L955.892 126.107L965.025 107.009L970.837 98.706L966.686 64.6629L940.116 49.7171L921.018 64.6629V127.767L933.473 129.428L903.582 154.337L905.242 143.543H889.466L844.629 132.749V77.948V56.3597L860.405 37.2624L905.242 30.6198L901.091 9.03149L933.473 8.20117L921.018 28.9592L905.242 45.5655L855.423 67.9842L858.744 92.0634L871.199 118.634L891.957 126.107L911.054 98.706L903.582 45.5655L921.018 28.9592L969.177 38.923L975.819 60.5113L986.614 71.3055L994.086 98.706L982.462 124.446L961.704 140.222L926 145.204L916.036 176.756L903.582 172.604V154.337Z" fill="#C9BFB4"/>
<path d="M696 6.54102L730.873 9.03197L716.758 30.6203L706.794 94.5549L712.606 138.562L716.758 123.616L750.801 83.7607L770.728 36.4325L790.656 6.54102H823.869L813.075 36.4325L818.057 102.028L814.735 145.204L823.869 162.641L790.656 164.302L801.45 149.356L798.129 102.028L790.656 90.4033L801.45 30.6203L802.716 43.9054L774.05 72.1363L735.025 133.58L720.079 164.302L690.188 169.284L696 123.616L700.151 43.9054L696 6.54102Z" fill="#C9BFB4"/>
<path d="M368.853 76.2874L383.799 82.9299L397.914 91.2331L407.048 94.5544V137.731L363.041 93.7241L331.489 101.197L325.676 111.161L328.998 141.052L338.131 150.186L367.192 146.034L391.272 121.955H395.423L407.048 137.731L377.987 155.998L354.738 168.453H328.998L307.409 174.265L311.561 116.973L307.409 76.2874L311.561 56.3597L299.937 4.87988L319.034 13.1831H402.896L386.29 29.7895L364.701 23.9772L333.98 32.2804L325.676 79.6086H349.756L368.853 76.2874Z" fill="#C9BFB4"/>
<path d="M436.939 9.86328L456.867 23.9787L498.383 18.1665L515.82 21.4878L527.444 19.8271L521.632 43.0761L500.043 33.1122L479.285 47.2277L455.206 38.0941L451.885 66.325L458.527 87.9133L455.206 127.769V138.563L456.867 157.66L474.304 173.436H436.939L439.43 124.447L427.806 96.2165L436.939 70.4766V9.86328Z" fill="#C9BFB4"/>
<path d="M9.13352 8.13477L29.0612 22.3218L70.5772 16.4801L88.0139 19.8182L99.6384 18.1492L93.8261 41.5161L72.2378 31.5017L51.4798 45.6888L27.4005 36.5089L24.0793 64.8831L30.7218 86.581L27.4005 126.639V137.488L29.0612 156.682L46.4979 172.538H9.13352L11.6245 123.3L0 94.9263L9.13352 69.0558V8.13477Z" fill="#C9BFB4"/>
<path d="M563.147 28.9591L564.807 21.4863L558.995 11.5224L581.414 7.37084L617.948 17.3347L652.821 4.87988L658.633 21.4863L647.839 72.1358L644.518 114.482L656.973 166.792L622.099 165.132L632.063 131.088L626.251 99.5363L635.384 49.7171V33.9411L579.753 28.9591L581.414 92.0634L563.147 143.543L555.674 158.489L549.031 170.113L528.273 179.247L505.854 160.15L517.479 136.07L534.916 148.525L544.88 143.543L553.183 121.125L561.486 73.7964L563.147 28.9591Z" fill="#C9BFB4"/>
<path d="M119.646 88.1608L116.074 106.475L121.789 126.751L141.08 154.875L153.225 160.762L186.09 169.265L214.669 150.951L241.818 137.216L247.534 111.707L250.801 86.8587L245.346 70.3876L238.868 52.4255L234.673 48.3353L226.595 41.175L227.529 41.0682L232.391 43.2209L256.255 49.571L259.679 50.955L266.824 77.8879V105.166L259.679 131.329L241.818 148.989L224.671 170.573L187.519 183L157.512 173.843L121.789 157.491L104.642 121.518L102.499 93.3933L116.074 65.2686L128.219 49.571L139.651 42.3763L151.082 54.8035L136.793 63.9605L132.506 75.0795L119.646 88.1608Z" fill="#C9BFB4"/>
<path d="M195.211 33.2991L197.155 29.5072L192.873 28.5091L190.519 26.1047L175.251 27.8538L173.355 26.8817L164.265 30.6011L175.327 20.7095L182.956 19.8323L161.056 18.1807L157.264 16.2364L149.656 14.7299L157.312 11.4724L169.222 11.5932L167.813 9.67312L162.562 10.5728L155.441 8.11821L152.135 5.22595L144.065 2.28533L153.617 0L163.145 0.0966897L197.397 5.68699L206.414 9.11368L211.13 13.9261L220.124 19.7348L243.793 29.2909L259.679 50.955L248.073 78.6232L235.584 45.6201L217.962 44.9649L209.82 49.1703L202.187 50.0458L194.118 47.1052L187.919 47.5187L181.697 50.3143L175.523 48.3458L171.731 46.4015L161.717 47.2528L175.134 39.7657L181.818 38.4042L195.211 33.2991Z" fill="#C9BFB4"/>
</svg>
