<svg width="1989" height="193" viewBox="0 0 1989 193" fill="none" xmlns="http://www.w3.org/2000/svg">
<path d="M903.582 162.337L933.473 132.446L955.892 134.107L965.025 115.009L970.837 106.706L966.686 72.6629L940.116 57.7171L921.018 72.6629V135.767L933.473 137.428L903.582 162.337L905.242 151.543H889.466L844.629 140.749V85.948V64.3597L860.405 45.2624L905.242 38.6198L901.091 17.0315L933.473 16.2012L921.018 36.9592L905.242 53.5655L855.423 75.9842L858.744 100.063L871.199 126.634L891.957 134.107L911.054 106.706L903.582 53.5655L921.018 36.9592L969.177 46.923L975.819 68.5113L986.614 79.3055L994.086 106.706L982.462 132.446L961.704 148.222L926 153.204L916.036 184.756L903.582 180.604V162.337Z" fill="#C9BFB4"/>
<path d="M696 14.541L730.873 17.032L716.758 38.6203L706.794 102.555L712.606 146.562L716.758 131.616L750.801 91.7607L770.728 44.4325L790.656 14.541H823.869L813.075 44.4325L818.057 110.028L814.735 153.204L823.869 170.641L790.656 172.302L801.45 157.356L798.129 110.028L790.656 98.4033L801.45 38.6203L802.716 51.9054L774.05 80.1363L735.025 141.58L720.079 172.302L690.188 177.284L696 131.616L700.151 51.9054L696 14.541Z" fill="#C9BFB4"/>
<path d="M368.853 84.2874L383.799 90.9299L397.914 99.2331L407.048 102.554V145.731L363.041 101.724L331.489 109.197L325.676 119.161L328.998 149.052L338.131 158.186L367.192 154.034L391.272 129.955H395.423L407.048 145.731L377.987 163.998L354.738 176.453H328.998L307.409 182.265L311.561 124.973L307.409 84.2874L311.561 64.3597L299.937 12.8799L319.034 21.1831H402.896L386.29 37.7895L364.701 31.9772L333.98 40.2804L325.676 87.6086H349.756L368.853 84.2874Z" fill="#C9BFB4"/>
<path d="M436.939 17.8633L456.867 31.9787L498.383 26.1665L515.82 29.4878L527.444 27.8271L521.632 51.0761L500.043 41.1122L479.285 55.2277L455.206 46.0941L451.885 74.325L458.527 95.9133L455.206 135.769V146.563L456.867 165.66L474.304 181.436H436.939L439.43 132.447L427.806 104.216L436.939 78.4766V17.8633Z" fill="#C9BFB4"/>
<path d="M9.13352 16.1348L29.0612 30.3218L70.5772 24.4801L88.0139 27.8182L99.6384 26.1492L93.8261 49.5161L72.2378 39.5017L51.4798 53.6888L27.4005 44.5089L24.0793 72.8831L30.7218 94.581L27.4005 134.639V145.488L29.0612 164.682L46.4979 180.538H9.13352L11.6245 131.3L0 102.926L9.13352 77.0558V16.1348Z" fill="#C9BFB4"/>
<path d="M563.147 36.9591L564.807 29.4863L558.995 19.5224L581.414 15.3708L617.948 25.3347L652.821 12.8799L658.633 29.4863L647.839 80.1358L644.518 122.482L656.973 174.792L622.099 173.132L632.063 139.088L626.251 107.536L635.384 57.7171V41.9411L579.753 36.9591L581.414 100.063L563.147 151.543L555.674 166.489L549.031 178.113L528.273 187.247L505.854 168.15L517.479 144.07L534.916 156.525L544.88 151.543L553.183 129.125L561.486 81.7964L563.147 36.9591Z" fill="#C9BFB4"/>
<path d="M119.646 96.1608L116.074 114.475L121.789 134.751L141.08 162.875L153.225 168.762L186.09 177.265L214.669 158.951L241.818 145.216L247.534 119.707L250.801 94.8587L245.346 78.3876L238.868 60.4255L234.673 56.3353L226.595 49.175L227.529 49.0682L232.391 51.2209L256.255 57.571L259.679 58.955L266.824 85.8879V113.166L259.679 139.329L241.818 156.989L224.671 178.573L187.519 191L157.512 181.843L121.789 165.491L104.642 129.518L102.499 101.393L116.074 73.2686L128.219 57.571L139.651 50.3763L151.082 62.8035L136.793 71.9605L132.506 83.0795L119.646 96.1608Z" fill="#C9BFB4"/>
<path d="M195.211 41.2991L197.155 37.5072L192.873 36.5091L190.519 34.1047L175.251 35.8538L173.355 34.8817L164.265 38.6011L175.327 28.7095L182.956 27.8323L161.056 26.1807L157.264 24.2364L149.656 22.7299L157.312 19.4724L169.222 19.5932L167.813 17.6731L162.562 18.5728L155.441 16.1182L152.135 13.2259L144.065 10.2853L153.617 8L163.145 8.09669L197.397 13.687L206.414 17.1137L211.13 21.9261L220.124 27.7348L243.793 37.2909L259.679 58.955L248.073 86.6232L235.584 53.6201L217.962 52.9649L209.82 57.1703L202.187 58.0458L194.118 55.1052L187.919 55.5187L181.697 58.3143L175.523 56.3458L171.731 54.4015L161.717 55.2528L175.134 47.7657L181.818 46.4042L195.211 41.2991Z" fill="#C9BFB4"/>
<path d="M1133.22 88.1608L1125.57 109L1135.37 126.751L1138.08 143L1154.67 154.875L1166.82 160.762L1193.11 163.5L1221.63 166L1234.63 163.5L1255.46 137.216L1261.18 111.707L1264.45 86.8587L1258.99 70.3876L1252.51 52.4255L1248.32 48.3353L1240.23 41.175L1241.17 41.0682L1246.03 43.2209L1267.15 52.4255L1280.48 77.8879L1273.34 105V131.329L1267.15 157.5L1238.31 170.573L1196.77 186.5L1164.68 183L1135.37 157.491L1116.07 123V93.3933L1119.57 69L1138.08 50.0458L1163.25 39.7657L1164.68 54.8035L1150.38 63.9605L1138.08 73.5L1133.22 88.1608Z" fill="#C9BFB4"/>
<path d="M1208.83 33.2991L1210.78 29.5072L1206.49 28.5091L1204.14 26.1047L1188.86 27.8538L1186.96 26.8817L1177.87 30.6011L1188.94 20.7095L1196.57 19.8323L1174.66 18.1807L1170.86 16.2364L1163.25 14.7299L1170.91 11.4724L1182.83 11.5932L1181.42 9.67312L1176.16 10.5728L1169.04 8.11821L1165.73 5.22595L1157.66 2.28533L1167.21 0L1176.75 0.0966897L1211.02 5.68699L1220.04 9.11368L1224.76 13.9261L1233.76 19.7348L1257.44 29.2909L1267.15 52.4255L1261.72 78.6232L1249.23 45.6201L1231.6 44.9649L1223.45 49.1703L1215.81 50.0458L1207.74 47.1052L1201.54 47.5187L1195.31 50.3143L1189.13 48.3458L1185.34 46.4015L1175.32 47.2528L1188.74 39.7657L1195.43 38.4042L1208.83 33.2991Z" fill="#C9BFB4"/>
<path d="M1899.08 48.4826L1877.54 61.3969L1858.88 68.5716L1856 110.184L1860.31 123.099L1894.77 143.188L1917.74 144.623L1924.92 161.842V170.451L1930.66 181.931H1899.08L1901.95 169.016L1899.08 157.537L1886.15 161.842L1850.26 148.927L1838.77 130.273L1835.9 108.749L1834.47 71.4414L1853.13 47.0477L1877.54 29.8286H1899.08V4L1920.61 11.1746L1919.89 31.981L1975.17 37.0032V68.5716L1988.09 84.3557L1982.35 127.403L1966.55 144.623L1924.92 161.842L1917.74 144.623L1940.71 134.578L1959.38 120.229L1966.55 95.8351L1953.63 48.4826L1919.18 52.7874V74.3113V91.5303L1917.74 144.623L1894.77 143.188L1901.95 115.924V81.4859L1899.08 48.4826Z" fill="#C9BFB4"/>
<path d="M1687.56 16L1706.22 17.4349L1713.4 60.4826L1706.22 109.27L1710.53 146.578L1732.07 112.14L1756.48 83.4414L1780.88 56.1779L1789.5 37.5239L1800.98 17.4349H1819.65L1822.52 43.2635L1816.78 77.7017L1819.65 116.445V152.318V182.451H1790.93L1800.98 143.708L1798.11 103.53L1800.98 80.5716L1798.11 56.1779L1783.75 90.616L1766.53 102.095L1746.43 123.619L1733.5 148.013L1716.27 166.667L1710.53 182.451H1690.43V140.838L1680.38 100.66L1690.43 61.9176L1687.56 16Z" fill="#C9BFB4"/>
<path d="M998.307 70.6573L1001.18 50.5683V19L1054.3 29.0445L1071.53 24.7397H1107.42V47.6985L1087.32 43.3937L1060.04 52.0033L1021.28 43.3937L1027.02 60.6128L1021.28 96.4859L1024.15 126.619V165.362L1037.07 189.756H994L998.307 165.362L1006.92 136.664L998.307 105.095V97.9208V70.6573Z" fill="#C9BFB4"/>
<path d="M1435.55 67.6573L1438.42 47.5683V16L1491.54 26.0445L1508.77 21.7397H1544.67V44.6985L1524.57 40.3937L1497.29 49.0032L1458.52 40.3937L1464.27 57.6128L1458.52 93.4859L1461.39 123.619V162.362L1474.32 186.756H1431.24L1435.55 162.362L1444.16 133.664L1435.55 102.095V94.9208V67.6573Z" fill="#C9BFB4"/>
<path d="M1338.67 23.1746H1364.52L1397.54 16L1407.59 27.4794L1388.92 43.2635L1335.8 40.3937H1314.27L1322.88 63.3525L1314.27 89.1811L1342.98 86.3113L1377.44 93.4859L1308.52 117.88L1322.88 159.492L1368.82 166.667L1396.1 159.492L1388.92 120.749L1368.82 112.14L1338.67 107.207L1377.44 93.4859L1406.15 103.53L1411.9 130.794L1417.64 181.016L1364.52 192.496L1327.19 181.016L1295.6 188.191L1298.47 165.232L1294.17 137.969L1295.6 93.4859L1301.35 71.962L1295.6 47.5683V23.1746L1309.96 16L1338.67 23.1746Z" fill="#C9BFB4"/>
<path d="M1579.68 22.3048L1615.57 18L1658.64 25.1746L1668.69 22.3048V62.4826L1662.95 84.0065L1668.69 119.88L1665.82 150.013L1668.69 187.321H1642.85L1648.59 167.232L1647.16 147.143V122.749L1648.59 92.616L1641.41 39.5239L1617.01 43.8286L1585.42 39.5239L1583.99 69.6572L1582.55 95.4859L1585.42 124.184L1583.99 155.753L1569.63 175.842L1550.96 187.321L1532.3 183.016V161.492L1543.79 167.232L1556.71 161.492L1562.45 131.359L1568.19 88.3112L1562.45 22.3048H1579.68Z" fill="#C9BFB4"/>
</svg>
